<?xml version="1.0" standalone="no"?>
<!DOCTYPE svg PUBLIC "-//W3C//DTD SVG 20010904//EN"
 "http://www.w3.org/TR/2001/REC-SVG-20010904/DTD/svg10.dtd">
<svg version="1.0" xmlns="http://www.w3.org/2000/svg"
 width="461.000000pt" height="461.000000pt" viewBox="0 0 461.000000 461.000000"
 preserveAspectRatio="xMidYMid meet">

<g transform="translate(0.000000,461.000000) scale(0.100000,-0.100000)"
fill="#000000" stroke="none">
<path d="M1025 3784 c-133 -28 -212 -69 -296 -153 -108 -109 -159 -237 -159
-404 0 -96 15 -159 58 -242 37 -75 143 -177 230 -223 57 -31 62 -35 56 -60 -4
-15 -7 -27 -8 -28 -1 0 -48 -31 -106 -69 -253 -165 -481 -473 -551 -741 -24
-96 -26 -251 -4 -337 53 -202 214 -374 487 -520 l97 -52 3 -97 3 -98 -107 0
c-70 0 -109 -4 -114 -12 -12 -19 235 -239 381 -340 97 -67 224 -142 230 -136
2 2 -7 38 -20 80 -35 109 -48 233 -42 378 6 123 8 140 28 250 10 54 50 212 54
218 2 2 54 -22 116 -52 294 -141 565 -199 939 -199 409 0 699 70 1042 251 12
6 47 -125 73 -273 40 -223 32 -415 -23 -582 l-28 -81 56 28 c89 45 258 161
355 243 148 125 231 205 222 214 -5 4 -61 10 -124 11 l-115 4 6 45 c3 25 6 69
6 98 l0 51 93 48 c272 142 439 320 492 523 22 86 20 241 -4 337 -70 268 -298
576 -551 741 -58 38 -105 69 -106 69 -1 1 -4 13 -8 28 -6 25 -1 29 56 60 87
46 193 148 230 223 43 84 58 146 58 245 0 161 -53 294 -159 401 -159 160 -387
202 -580 108 -72 -36 -165 -122 -206 -194 -15 -25 -33 -44 -39 -41 -165 73
-223 94 -334 122 -272 69 -553 69 -827 -1 -109 -27 -166 -48 -331 -121 -6 -3
-24 16 -39 41 -66 114 -202 212 -324 235 -53 10 -128 12 -166 4z m144 -105
c16 -48 15 -50 -31 -48 -67 4 -88 0 -88 -15 0 -34 -82 -54 -101 -24 -12 19
-86 -23 -147 -84 -93 -94 -138 -221 -130 -372 5 -88 5 -90 -9 -51 -8 22 -17
74 -20 115 -19 275 184 509 444 510 71 0 71 0 82 -31z m2502 1 c121 -47 224
-164 267 -300 22 -71 22 -237 0 -295 -15 -40 -15 -39 -10 51 5 106 -7 171 -51
262 -49 100 -203 231 -226 193 -19 -29 -101 -9 -101 25 0 15 -21 19 -87 15
-47 -2 -48 0 -32 49 l12 32 86 -4 c56 -4 106 -13 142 -28z m-2376 -19 c3 -5 2
-12 -3 -15 -5 -3 -9 1 -9 9 0 17 3 19 12 6z m1314 -86 c204 -45 380 -116 522
-211 87 -58 227 -189 290 -272 26 -35 68 -102 92 -150 46 -89 93 -209 86 -217
-3 -2 -44 12 -92 31 -49 20 -127 45 -175 57 -76 18 -95 28 -152 75 -153 126
-333 167 -507 117 -74 -22 -138 -83 -148 -144 -8 -50 14 -132 59 -218 32 -61
33 -65 28 -157 -5 -109 8 -193 44 -274 53 -119 126 -179 337 -274 207 -94 313
-173 485 -360 l102 -113 -47 -44 c-106 -98 -312 -216 -496 -285 -363 -136
-856 -159 -1274 -61 -250 59 -543 205 -696 346 l-47 44 102 113 c172 187 278
266 485 360 71 32 155 75 186 96 140 93 203 237 195 444 -5 102 -4 105 28 165
45 86 67 168 59 218 -10 60 -74 123 -145 143 -182 51 -354 12 -510 -116 -57
-47 -76 -57 -152 -75 -48 -12 -126 -37 -175 -57 -48 -19 -89 -33 -92 -31 -7 8
40 128 86 217 127 248 369 455 660 564 80 30 243 71 330 83 103 15 443 5 532
-14z m-1423 -174 c22 -10 52 -34 67 -52 l26 -34 -58 -60 c-33 -33 -81 -90
-108 -126 l-49 -66 -37 19 c-89 45 -121 170 -65 255 30 46 96 83 148 83 19 0
53 -9 76 -19z m2403 -14 c52 -35 85 -103 78 -163 -6 -57 -47 -118 -94 -142
l-37 -19 -49 66 c-27 36 -75 93 -108 126 l-58 60 26 34 c57 73 163 90 242 38z
m-1946 -554 c-7 -2 -21 -2 -30 0 -10 3 -4 5 12 5 17 0 24 -2 18 -5z m1350 0
c-7 -2 -21 -2 -30 0 -10 3 -4 5 12 5 17 0 24 -2 18 -5z m-1415 -73 c95 -12
196 -46 186 -62 -5 -7 -2 -8 5 -3 17 10 63 -35 56 -53 -5 -13 -3 -13 11 -1 16
13 16 12 6 -8 -9 -16 -9 -29 -1 -50 10 -26 12 -27 23 -10 17 22 22 22 28 -1 3
-12 -2 -24 -13 -31 -13 -7 -19 -8 -19 0 0 5 -4 8 -9 5 -5 -4 -37 7 -72 24 -96
45 -194 64 -308 57 -342 -18 -700 -295 -1030 -796 -44 -68 -81 -126 -81 -130
0 -3 -10 -19 -21 -36 l-21 -30 6 95 c2 52 12 120 21 150 26 90 58 160 68 153
6 -3 7 -1 3 5 -11 19 62 141 153 254 201 250 550 439 871 471 19 2 40 5 45 5
6 1 48 -3 93 -8z m1710 -17 c265 -52 573 -239 743 -451 91 -113 164 -235 153
-254 -4 -6 -3 -8 3 -5 28 18 96 -235 91 -339 l-3 -59 -20 40 c-59 115 -222
345 -341 480 -208 236 -405 377 -619 445 -150 47 -334 36 -474 -30 -34 -17
-64 -30 -66 -30 -5 0 4 46 15 74 5 13 6 27 3 30 -10 10 40 57 55 51 7 -2 11
-1 7 4 -8 14 97 50 173 60 79 10 178 5 280 -16z m-525 -123 c-6 -24 -23 -37
-23 -18 0 12 18 38 26 38 1 0 0 -9 -3 -20z m-900 -16 c-4 -10 -9 -12 -15 -6
-12 12 -1 35 12 27 5 -3 6 -13 3 -21z m878 -64 c-4 -13 -6 -12 -9 2 -2 11 -9
15 -20 11 -14 -6 -15 -4 -5 9 7 8 12 17 10 19 -1 2 5 -3 14 -11 9 -8 14 -22
10 -30z m-831 -9 c0 -6 -4 -12 -8 -15 -5 -3 -9 1 -9 9 0 8 4 15 9 15 4 0 8 -4
8 -9z m800 -12 c0 -6 -4 -7 -10 -4 -5 3 -10 11 -10 16 0 6 5 7 10 4 6 -3 10
-11 10 -16z"/>
<path d="M2157 2236 c-50 -14 -97 -49 -97 -74 0 -8 12 -37 27 -64 28 -51 83
-97 138 -115 l30 -10 -36 -36 c-30 -30 -45 -37 -75 -37 -77 0 -162 61 -187
135 -11 32 -19 40 -38 40 -18 0 -25 -6 -27 -24 -6 -43 9 -73 64 -131 47 -49
58 -68 70 -121 42 -181 150 -299 274 -299 124 0 232 118 274 299 12 53 23 72
70 121 55 58 70 88 64 131 -2 18 -9 24 -27 24 -19 0 -27 -8 -38 -40 -25 -74
-110 -135 -187 -135 -30 0 -45 7 -74 37 l-37 36 30 10 c55 18 110 64 138 115
15 27 27 57 27 65 0 26 -57 65 -110 76 -68 15 -213 13 -273 -3z m243 -76 c0
-6 -40 -10 -100 -10 -60 0 -100 4 -100 10 0 6 40 10 100 10 60 0 100 -4 100
-10z"/>
<path d="M1865 2560 c-3 -5 -1 -10 4 -10 6 0 11 5 11 10 0 6 -2 10 -4 10 -3 0
-8 -4 -11 -10z"/>
</g>
</svg>
