<?xml version="1.0" standalone="no"?>
<!DOCTYPE svg PUBLIC "-//W3C//DTD SVG 20010904//EN"
 "http://www.w3.org/TR/2001/REC-SVG-20010904/DTD/svg10.dtd">
<svg version="1.0" xmlns="http://www.w3.org/2000/svg"
 width="2344.000000pt" height="2344.000000pt" viewBox="0 0 2344.000000 2344.000000"
 preserveAspectRatio="xMidYMid meet">

<g transform="translate(0.000000,2344.000000) scale(0.100000,-0.100000)"
fill="#000000" stroke="none">
<path d="M4780 20039 c-1012 -110 -1897 -675 -2412 -1539 -281 -471 -429 -981
-445 -1535 -18 -628 137 -1211 463 -1748 49 -81 188 -283 203 -297 4 -3 40
-45 81 -95 93 -112 268 -289 380 -382 69 -57 217 -167 344 -256 18 -12 16 -20
-37 -182 -249 -760 -416 -1605 -473 -2384 -5 -81 -12 -107 -51 -195 -239 -536
-426 -1138 -512 -1646 -58 -341 -66 -434 -66 -820 0 -372 5 -444 51 -709 108
-633 385 -1226 812 -1741 86 -104 388 -414 487 -501 390 -341 847 -639 1380
-901 88 -43 159 -81 158 -84 -1 -3 -50 -46 -110 -96 -333 -281 -633 -582 -861
-867 -168 -209 -532 -774 -532 -825 0 -10 103 -110 212 -204 l36 -32 52 96
c104 192 301 503 418 659 175 232 441 516 707 755 119 107 352 300 361 300 5
-1 29 -18 54 -40 l44 -39 -13 -63 c-7 -35 -20 -92 -28 -128 l-15 -65 -134
-103 c-340 -264 -702 -628 -951 -957 -140 -186 -355 -539 -337 -554 5 -4 41
-34 79 -67 87 -75 253 -210 407 -331 l117 -93 12 38 c16 51 107 232 159 317
52 85 175 267 382 565 264 382 439 674 511 858 52 130 97 310 172 682 128 640
187 802 355 971 170 172 425 307 704 371 131 29 369 36 502 14 299 -51 558
-206 827 -495 48 -52 84 -97 81 -100 -3 -3 -15 5 -27 19 -111 127 -345 268
-577 348 -190 65 -323 86 -540 87 -247 0 -385 -28 -540 -112 -262 -141 -463
-461 -588 -934 -31 -116 -51 -211 -96 -466 -60 -331 -205 -651 -434 -955 -38
-52 -126 -161 -193 -245 -170 -207 -699 -936 -699 -962 0 -4 55 -48 123 -97
815 -601 1745 -1112 2710 -1489 l98 -39 65 65 c102 99 286 300 388 423 98 117
291 372 322 425 10 17 22 31 26 31 3 0 112 -27 240 -60 714 -183 1347 -282
2198 -346 327 -24 1166 -32 1515 -14 903 46 1666 157 2463 360 150 39 274 70
276 70 2 0 41 -52 86 -116 161 -229 379 -488 607 -722 l100 -103 49 19 c183
73 265 107 309 127 28 12 127 56 220 96 208 90 721 345 945 470 277 154 573
335 825 504 225 150 482 333 555 393 l32 27 -158 225 c-248 355 -381 533 -554
745 -147 180 -186 233 -280 376 -105 161 -200 353 -250 507 -38 117 -54 187
-115 512 -77 413 -212 746 -394 969 -20 25 -69 73 -109 107 -183 156 -419 224
-737 210 -403 -17 -776 -167 -1045 -420 -62 -59 -63 -59 -30 -16 63 83 264
274 360 342 244 174 468 248 744 248 376 0 754 -151 1007 -403 154 -154 220
-335 340 -927 107 -532 143 -660 238 -850 101 -201 265 -461 516 -820 177
-253 232 -335 301 -445 69 -113 174 -318 174 -341 0 -8 2 -14 5 -14 6 0 329
259 467 374 53 45 97 87 97 95 1 17 -89 180 -167 301 -219 342 -516 681 -867
991 -92 80 -271 228 -324 266 -3 2 -22 79 -43 171 l-37 167 37 32 c20 18 40
33 44 33 3 0 57 -41 120 -92 368 -297 740 -673 965 -973 137 -182 304 -444
427 -668 l37 -67 27 20 c15 11 72 62 127 115 l100 94 -39 73 c-96 181 -336
543 -474 717 -235 296 -608 665 -966 958 -22 18 -38 34 -35 35 2 2 63 32 134
66 478 233 923 518 1290 823 130 109 394 367 504 494 545 628 840 1303 926
2120 31 294 18 753 -31 1085 -85 574 -289 1255 -547 1822 -29 62 -36 91 -41
174 -22 304 -72 699 -131 1027 -81 444 -232 1036 -360 1409 -19 56 -35 104
-35 108 0 4 42 36 92 70 683 464 1171 1193 1332 1993 53 259 61 351 60 652 0
288 -11 406 -60 636 -242 1151 -1093 2073 -2218 2404 -140 41 -306 77 -471
102 -172 25 -677 26 -850 0 -452 -68 -870 -217 -1235 -442 -224 -139 -380
-264 -589 -472 l-164 -164 -196 85 c-342 147 -571 231 -931 340 -1394 425
-3154 538 -4775 305 -846 -121 -1657 -351 -2372 -670 -72 -33 -133 -59 -136
-59 -3 0 -65 61 -139 136 -201 205 -385 354 -603 489 -373 231 -773 377 -1220
447 -102 16 -190 21 -410 23 -154 2 -318 -1 -365 -6z m516 -419 c672 -54 1246
-315 1736 -789 l87 -84 -136 -78 c-81 -47 -141 -76 -147 -71 -6 5 -45 35 -86
68 -567 452 -1325 681 -2056 624 -660 -52 -1266 -313 -1764 -759 -84 -76 -84
-76 -50 -27 106 149 330 382 500 519 184 149 453 307 680 400 388 159 828 229
1236 197z m13389 -14 c319 -41 587 -124 885 -272 393 -196 732 -481 996 -839
22 -29 2 -15 -79 55 -205 179 -394 309 -622 425 -1045 533 -2291 401 -3217
-342 -42 -34 -61 -43 -70 -35 -7 5 -68 41 -136 80 l-122 69 101 97 c473 455
1051 717 1704 776 128 11 418 4 560 -14z m-6350 -247 c1512 -74 2856 -439
3955 -1074 1575 -909 2740 -2422 3380 -4390 244 -751 410 -1583 460 -2300 l11
-160 94 -220 c292 -686 445 -1243 511 -1855 23 -213 23 -604 0 -805 -135
-1179 -798 -2097 -2041 -2825 -154 -90 -589 -309 -757 -382 l-108 -46 -10 41
c-51 206 -141 425 -225 552 -127 192 -427 407 -724 520 -367 139 -788 154
-1128 40 -331 -111 -667 -366 -912 -692 -264 -351 -431 -765 -497 -1228 -9
-66 -17 -121 -18 -122 -10 -13 -894 -104 -1281 -132 -548 -40 -714 -46 -1325
-46 -608 0 -755 5 -1320 46 -494 35 -1216 113 -1236 133 -6 6 -16 54 -23 106
-40 321 -172 728 -313 965 -137 230 -262 390 -429 550 -269 258 -540 406 -864
472 -139 28 -492 25 -635 -6 -516 -110 -947 -409 -1114 -772 -42 -91 -97 -248
-121 -349 -10 -41 -22 -79 -26 -84 -17 -20 -630 275 -904 435 -713 417 -1252
916 -1590 1474 -559 923 -619 2055 -181 3380 70 210 181 497 274 706 56 127
60 142 67 235 82 1214 422 2492 954 3579 1297 2654 3605 4089 6841 4254 211
11 1013 11 1235 0z"/>
<path d="M8105 15459 c-960 -99 -1865 -742 -2571 -1824 -171 -263 -391 -688
-512 -990 -311 -775 -411 -1467 -311 -2148 52 -357 182 -731 346 -997 265
-430 654 -737 1069 -842 82 -21 111 -23 359 -23 240 0 283 3 390 23 252 49
522 161 709 294 326 231 577 596 716 1043 138 441 226 678 373 1010 305 688
620 1213 1018 1696 187 228 290 406 364 634 67 203 80 294 79 540 0 179 -3
225 -23 315 -105 489 -395 874 -818 1084 -169 84 -318 130 -533 166 -145 24
-506 35 -655 19z m-282 -1923 c74 -36 158 -127 188 -203 31 -80 37 -219 14
-299 -36 -125 -115 -222 -223 -272 -48 -23 -71 -27 -142 -27 -76 0 -92 3 -152
33 -177 87 -260 318 -188 527 23 66 42 98 94 154 84 90 162 122 277 118 59 -3
90 -10 132 -31z"/>
<path d="M14830 15459 c-795 -72 -1341 -534 -1502 -1272 -19 -88 -22 -131 -22
-322 0 -190 3 -234 23 -325 61 -285 183 -546 356 -759 270 -332 350 -441 512
-696 261 -409 512 -911 719 -1437 69 -175 122 -330 229 -665 230 -727 712
-1181 1403 -1320 130 -27 152 -28 407 -28 248 0 277 2 359 23 390 99 754 371
1013 757 223 332 364 738 419 1205 24 203 24 595 1 790 -64 525 -230 1062
-496 1606 -282 576 -616 1056 -1009 1451 -729 732 -1553 1071 -2412 992z m983
-1923 c76 -37 168 -137 197 -213 52 -137 49 -255 -8 -378 -39 -82 -87 -134
-164 -176 -58 -32 -70 -34 -153 -34 -76 0 -99 4 -146 26 -226 106 -312 421
-175 637 26 41 100 113 137 133 89 47 221 50 312 5z"/>
<path d="M11420 11909 c-467 -37 -864 -148 -1008 -283 -86 -80 -126 -207 -102
-323 37 -175 225 -469 398 -619 217 -190 459 -295 772 -338 58 -8 88 -14 68
-15 l-38 -1 0 -339 0 -338 -26 -39 c-82 -123 -218 -213 -509 -338 -228 -98
-388 -209 -568 -395 -276 -287 -448 -644 -496 -1031 -16 -124 -13 -411 4 -547
51 -392 197 -715 412 -913 382 -353 1025 -570 1543 -521 401 38 769 171 1082
391 111 78 259 221 316 307 177 264 274 628 273 1030 0 241 -24 402 -86 589
-90 272 -247 524 -451 727 -169 166 -324 270 -549 368 -287 124 -418 211 -499
333 l-26 39 0 338 0 339 -37 1 c-21 1 9 7 67 15 511 70 881 332 1101 779 89
181 98 278 40 401 -52 110 -157 180 -380 254 -343 114 -852 164 -1301 129z
m792 -258 c126 -22 193 -44 183 -61 -9 -15 -98 -38 -215 -56 -144 -22 -607
-30 -782 -14 -154 14 -274 35 -331 57 -39 16 -39 16 -15 29 49 26 153 46 358
68 19 2 181 3 360 1 279 -2 342 -5 442 -24z m-639 -4433 c9 -5 17 -14 17 -21
0 -7 11 -48 25 -92 15 -44 44 -143 66 -220 52 -182 49 -175 60 -150 4 11 32
117 60 235 29 118 57 218 62 221 5 3 8 9 8 13 -1 3 1 5 2 4 2 -2 11 3 19 10
15 12 192 16 212 5 4 -3 31 -7 58 -9 28 -3 55 -7 62 -11 11 -8 16 -9 49 -11
11 -1 15 -7 11 -14 -4 -7 -3 -8 4 -4 18 11 152 -38 152 -56 0 -4 3 -7 8 -7 20
3 32 -2 26 -13 -4 -7 -3 -8 4 -4 17 10 137 -73 197 -135 28 -29 45 -49 38 -45
-6 3 -15 2 -18 -4 -4 -6 -3 -10 2 -9 21 4 32 -3 48 -27 14 -22 15 -28 4 -36
-11 -8 -10 -9 3 -5 13 5 21 -8 37 -60 26 -81 26 -91 3 -70 -15 14 -19 15 -19
2 0 -8 4 -12 9 -9 4 3 8 1 8 -4 0 -16 -123 -103 -138 -97 -7 2 -11 1 -8 -4 9
-13 -21 -34 -36 -25 -7 4 -10 4 -6 -1 11 -11 -29 -38 -44 -29 -6 4 -8 3 -4 -4
6 -10 -30 -28 -46 -24 -5 1 -8 -2 -8 -6 0 -10 -21 -21 -135 -68 -90 -39 -89
-38 -79 -21 4 6 -2 4 -13 -6 -18 -16 -135 -58 -152 -55 -3 1 -13 -2 -21 -5
-29 -11 -132 -29 -137 -23 -4 3 -11 2 -17 -3 -12 -10 -243 -34 -254 -27 -4 2
-52 7 -106 10 -54 4 -103 9 -109 13 -6 4 -22 8 -34 9 -62 7 -140 28 -157 43
-11 9 -16 10 -12 4 8 -14 -6 -18 -18 -6 -3 4 -16 8 -27 10 -11 2 -30 8 -42 15
-12 6 -29 13 -37 14 -32 4 -210 80 -210 89 0 4 5 3 12 -1 7 -4 8 -3 4 4 -4 6
-13 9 -21 5 -14 -5 -20 7 -16 30 1 5 -3 6 -9 2 -6 -3 -7 -11 -3 -18 8 -14 -88
41 -102 58 -6 7 -20 15 -32 19 -11 4 -27 14 -35 23 -12 15 -10 15 13 0 21 -14
26 -14 26 -3 0 8 -6 12 -13 9 -6 -2 -15 0 -18 6 -4 6 -12 8 -19 5 -18 -6 -100
74 -90 89 8 13 9 18 11 55 1 15 6 21 14 16 7 -5 8 -3 3 5 -4 8 1 25 14 42 11
15 21 33 21 38 0 6 7 14 16 19 9 5 14 11 12 14 -6 8 56 69 80 79 13 5 21 12
19 17 -3 4 13 20 36 36 22 17 38 25 34 20 -3 -6 0 -11 7 -11 8 0 12 6 10 12
-5 13 109 78 120 68 3 -3 6 -2 6 4 0 14 97 46 112 37 6 -4 8 -3 4 4 -6 9 14
17 79 29 11 2 40 7 65 12 57 12 249 11 273 -1z"/>
<path d="M12606 7002 c-3 -5 1 -9 9 -9 8 0 12 4 9 9 -3 4 -7 8 -9 8 -2 0 -6
-4 -9 -8z"/>
<path d="M10812 6971 c-11 -7 -11 -9 0 -14 9 -3 15 1 15 9 0 8 -1 14 -1 14 -1
0 -7 -4 -14 -9z"/>
<path d="M11774 6769 c-3 -6 -2 -15 3 -20 5 -5 9 -1 9 11 0 23 -2 24 -12 9z"/>
<path d="M10680 6676 c0 -3 9 -10 20 -16 11 -6 20 -8 20 -6 0 3 -9 10 -20 16
-11 6 -20 8 -20 6z"/>
<path d="M12646 6621 c-5 -8 40 -9 47 -1 3 3 -6 6 -19 6 -13 1 -26 -1 -28 -5z"/>
<path d="M10810 6576 c0 -2 7 -7 16 -10 8 -3 12 -2 9 4 -6 10 -25 14 -25 6z"/>
<path d="M12287 6449 c7 -7 15 -10 18 -7 3 3 -2 9 -12 12 -14 6 -15 5 -6 -5z"/>
</g>
</svg>
