<?xml version="1.0" standalone="no"?>
<!DOCTYPE svg PUBLIC "-//W3C//DTD SVG 20010904//EN"
 "http://www.w3.org/TR/2001/REC-SVG-20010904/DTD/svg10.dtd">
<svg version="1.0" xmlns="http://www.w3.org/2000/svg"
 width="685.000000pt" height="177.000000pt" viewBox="0 0 685.000000 177.000000"
 preserveAspectRatio="xMidYMid meet">

<g transform="translate(0.000000,177.000000) scale(0.100000,-0.100000)"
fill="#000000" stroke="none">
<path d="M261 1595 c-74 -18 -84 -34 -77 -117 18 -207 168 -371 373 -409 43
-8 80 -8 146 1 85 13 88 12 110 -8 21 -20 25 -21 43 -7 18 15 18 16 -12 43
-28 24 -32 34 -37 102 -12 152 -109 290 -250 360 -101 49 -193 60 -296 35z
m108 -145 c28 -22 53 -40 56 -40 3 0 5 16 5 35 0 26 4 35 16 35 14 0 16 -8 10
-47 -5 -47 -5 -49 34 -76 l39 -28 3 57 c2 38 8 59 17 62 12 4 13 -8 8 -67 l-6
-71 52 -40 52 -39 8 69 c12 99 32 92 24 -8 l-6 -78 50 -38 c27 -20 47 -41 44
-46 -9 -15 -41 -12 -55 5 -7 9 -25 25 -40 35 -27 19 -28 19 -94 -6 -64 -25
-92 -26 -69 -3 6 6 36 18 67 28 l57 18 -52 40 -53 41 -45 -14 c-25 -8 -59 -17
-76 -21 -49 -10 -14 22 40 37 25 7 45 16 45 21 0 4 -14 18 -31 30 -27 19 -35
20 -69 10 -48 -14 -63 -14 -58 1 2 6 19 17 38 23 l33 11 -50 37 c-28 20 -56
44 -63 52 -26 31 18 15 69 -25z"/>
<path d="M1373 1603 c-7 -2 -13 -15 -13 -28 0 -17 27 -46 99 -109 55 -47 106
-86 113 -86 18 0 38 20 38 37 0 13 -205 194 -218 192 -4 0 -13 -3 -19 -6z"/>
<path d="M1141 1283 c-110 -124 -201 -234 -201 -244 0 -18 10 -19 163 -19 89
0 167 4 173 8 13 9 233 308 239 324 3 11 -70 80 -149 140 -23 17 -23 17 -225
-209z"/>
<path d="M2080 1180 l0 -330 75 0 75 0 0 101 0 101 74 -7 c128 -12 193 12 233
88 21 41 29 188 13 246 -15 55 -63 105 -115 120 -22 6 -111 11 -197 11 l-158
0 0 -330z m311 174 c7 -9 15 -41 17 -72 3 -46 0 -62 -16 -82 -18 -22 -28 -25
-89 -25 l-68 0 -3 98 -3 97 74 0 c56 0 78 -4 88 -16z"/>
<path d="M2632 1253 c3 -172 9 -268 17 -288 34 -83 114 -120 258 -119 80 1 98
4 149 30 96 48 98 57 102 372 l3 262 -75 0 -76 0 0 -236 0 -236 -29 -29 c-25
-25 -37 -29 -84 -29 -40 0 -61 6 -81 21 l-26 20 0 245 0 244 -81 0 -81 0 4
-257z"/>
<path d="M3260 1180 l0 -330 75 0 75 0 0 116 0 115 46 -3 46 -3 47 -112 46
-113 77 0 77 0 -14 33 c-7 17 -33 75 -58 128 l-44 95 37 32 c79 66 82 242 6
318 -45 45 -89 54 -263 54 l-153 0 0 -330z m300 175 c7 -8 15 -34 17 -58 8
-66 -17 -90 -101 -95 l-66 -4 0 86 0 86 69 0 c49 0 72 -4 81 -15z"/>
<path d="M3923 1498 c-17 -6 -44 -24 -60 -40 l-28 -29 -3 -244 c-3 -272 0
-289 61 -322 27 -15 55 -18 181 -16 203 2 196 0 196 73 l0 60 -129 0 c-152 0
-161 4 -161 81 l0 49 64 0 c34 0 91 3 125 6 l61 7 0 58 0 59 -125 0 -125 0 0
55 c0 43 4 56 19 65 11 5 76 10 145 10 l126 0 0 63 0 64 -122 6 c-150 9 -185
8 -225 -5z"/>
<path d="M4323 1498 c2 -7 39 -128 81 -268 42 -140 86 -283 97 -318 l21 -63
96 3 95 3 93 305 c51 168 96 315 99 328 5 21 3 22 -69 22 l-74 0 -11 -32 c-6
-18 -35 -123 -66 -233 -30 -110 -58 -207 -61 -215 -8 -19 -7 -21 -85 258 l-62
222 -80 0 c-59 0 -78 -3 -74 -12z"/>
<path d="M5053 1498 c-17 -6 -44 -24 -60 -40 l-28 -29 -3 -242 c-3 -209 -1
-246 13 -273 35 -66 108 -82 310 -67 l110 8 3 62 3 61 -136 4 c-154 3 -155 4
-155 81 l0 47 64 0 c34 0 91 3 125 6 l61 7 0 58 0 59 -125 0 -125 0 0 49 c0
77 9 81 161 81 l129 0 0 63 0 64 -122 6 c-150 9 -185 8 -225 -5z"/>
<path d="M5490 1179 l0 -330 189 3 189 3 44 30 c32 23 49 45 68 90 22 54 25
74 25 200 0 165 -16 226 -76 280 -49 44 -106 55 -289 55 l-150 0 0 -331z m327
176 c31 -21 43 -74 43 -183 0 -154 -28 -192 -142 -192 l-68 0 0 195 0 195 73
0 c49 0 80 -5 94 -15z"/>
<path d="M6257 1503 c-6 -10 -197 -637 -197 -646 0 -4 34 -7 74 -7 l75 0 17
60 17 60 107 0 107 0 16 -60 17 -60 79 0 78 0 -58 193 c-33 105 -78 254 -101
330 l-41 137 -93 0 c-51 0 -95 -3 -97 -7z m132 -269 c17 -66 31 -124 31 -127
0 -4 -32 -7 -71 -7 -63 0 -71 2 -67 18 3 9 18 70 33 134 16 65 32 115 36 110
3 -4 20 -61 38 -128z"/>
<path d="M191 956 c-7 -9 -11 -38 -9 -73 l3 -58 710 0 710 0 3 58 c2 35 -2 64
-9 73 -17 21 -1391 21 -1408 0z"/>
<path d="M187 773 c-4 -3 -7 -23 -7 -42 0 -28 11 -49 48 -96 38 -47 51 -73 60
-119 29 -143 142 -245 272 -246 52 0 56 -2 67 -30 6 -17 23 -34 38 -40 34 -13
425 -13 459 0 14 5 32 23 41 40 14 28 20 30 68 30 131 0 248 112 272 260 6 33
21 61 57 104 44 52 49 63 46 100 l-3 41 -706 3 c-388 1 -709 -1 -712 -5z"/>
<path d="M3330 590 c-10 -6 -11 -10 -2 -10 9 0 12 -27 12 -99 0 -70 -4 -101
-12 -104 -7 -3 7 -5 32 -5 25 0 39 2 33 5 -9 3 -13 36 -13 114 0 97 -2 109
-17 109 -10 0 -25 -5 -33 -10z"/>
<path d="M3470 590 c-10 -6 -11 -10 -2 -10 9 0 12 -27 12 -99 0 -70 -4 -101
-12 -104 -7 -3 7 -6 32 -6 35 0 41 2 28 10 -15 8 -18 26 -18 114 0 108 -4 118
-40 95z"/>
<path d="M5441 591 c-9 -6 -10 -11 -2 -15 16 -10 15 -193 -1 -199 -7 -3 7 -6
32 -6 35 0 41 2 28 10 -15 8 -18 26 -18 114 0 107 -4 118 -39 96z"/>
<path d="M2080 581 c0 -6 7 -11 15 -11 12 0 15 -17 15 -90 0 -74 -3 -91 -17
-99 -14 -8 -8 -10 27 -10 25 1 37 3 28 6 -15 4 -18 17 -18 86 l0 82 53 -87
c40 -68 57 -88 75 -88 21 0 22 3 22 100 0 60 4 100 10 100 6 0 10 5 10 10 0 6
-16 10 -35 10 -19 0 -35 -4 -35 -10 0 -5 5 -10 10 -10 6 0 10 -34 10 -81 l0
-82 -54 89 c-47 79 -57 89 -85 92 -17 2 -31 -1 -31 -7z"/>
<path d="M3890 580 c0 -5 3 -10 8 -10 4 0 22 -26 40 -59 36 -67 43 -127 15
-134 -10 -3 7 -5 37 -5 30 0 47 2 38 5 -27 7 -23 74 8 136 15 29 30 54 35 55
23 9 5 22 -28 22 -33 -1 -36 -2 -22 -13 15 -11 15 -16 -6 -56 l-22 -44 -26 47
c-14 25 -21 46 -16 46 5 0 9 5 9 10 0 6 -16 10 -35 10 -19 0 -35 -4 -35 -10z"/>
<path d="M5215 488 c-21 -57 -43 -106 -49 -110 -6 -4 7 -8 29 -8 26 0 35 3 27
9 -8 5 -12 17 -10 27 5 28 91 28 96 0 2 -10 -2 -22 -10 -27 -8 -6 5 -9 36 -9
42 0 47 2 33 13 -9 6 -31 55 -50 107 -21 57 -40 96 -49 98 -11 2 -26 -26 -53
-100z m75 -35 c0 -8 -13 -13 -31 -13 -29 0 -31 2 -26 28 3 15 11 41 17 57 l12
30 14 -45 c7 -25 14 -51 14 -57z"/>
<path d="M2583 535 c-12 -14 -17 -25 -12 -25 5 0 9 -21 9 -47 0 -79 7 -93 46
-93 19 0 34 5 34 10 0 6 -8 10 -17 8 -15 -3 -18 6 -21 60 -3 57 -1 62 18 62
11 0 20 5 20 10 0 6 -9 10 -20 10 -11 0 -20 7 -20 15 0 22 -12 18 -37 -10z"/>
<path d="M2385 516 c-17 -12 -15 -14 21 -12 33 1 39 -2 42 -20 3 -18 -4 -23
-33 -28 -24 -5 -39 -15 -47 -31 -18 -40 3 -54 80 -53 37 0 61 3 55 5 -9 3 -13
25 -13 62 0 43 -5 62 -18 74 -23 21 -62 22 -87 3z m73 -101 c-1 -10 -11 -23
-21 -29 -15 -9 -21 -7 -32 8 -17 22 -12 34 19 46 25 9 39 -1 34 -25z"/>
<path d="M2744 524 c-13 -6 -6 -124 9 -143 7 -8 24 -11 48 -8 21 3 42 0 47 -5
7 -7 16 -6 29 1 10 6 12 11 6 11 -9 0 -13 22 -13 76 0 65 -2 75 -16 70 -9 -3
-20 -6 -26 -6 -7 0 -6 -5 1 -14 7 -8 11 -36 9 -63 -3 -42 -6 -48 -27 -51 -32
-5 -41 12 -41 81 0 55 -3 61 -26 51z"/>
<path d="M2968 523 c-19 -5 -25 -23 -8 -23 15 0 13 -117 -2 -123 -7 -3 10 -5
37 -6 40 0 46 2 27 10 -21 8 -23 14 -20 61 3 49 5 53 31 56 15 2 27 9 27 18 0
17 -1 17 -34 4 -17 -6 -26 -6 -26 0 0 10 -3 11 -32 3z"/>
<path d="M3148 523 c-32 -8 -19 -20 20 -19 30 1 38 -3 40 -20 2 -16 -5 -22
-34 -30 -75 -19 -72 -79 4 -79 22 0 43 -3 47 -7 4 -4 12 -5 19 -2 8 3 10 25 6
70 -7 85 -32 106 -102 87z m53 -136 c-8 -8 -16 -9 -29 -1 -24 16 -21 36 8 51
23 12 25 11 28 -13 2 -15 -1 -31 -7 -37z"/>
<path d="M3580 521 c0 -5 3 -11 8 -13 4 -1 22 -36 39 -77 31 -70 32 -76 16
-93 -9 -10 -22 -18 -30 -18 -7 0 -13 -7 -13 -15 0 -18 5 -19 33 -4 29 16 32
20 68 117 18 45 36 85 40 88 19 11 8 24 -21 24 -28 0 -42 -14 -20 -22 5 -2 3
-25 -6 -56 -9 -30 -20 -50 -24 -45 -15 16 -31 83 -25 103 6 17 2 20 -29 20
-20 0 -36 -4 -36 -9z"/>
<path d="M4175 518 c-29 -16 -35 -28 -35 -74 0 -50 23 -74 72 -74 42 0 67 24
74 71 11 66 -53 110 -111 77z m71 -33 c9 -38 0 -87 -19 -99 -45 -27 -80 87
-36 118 26 18 47 11 55 -19z"/>
<path d="M4366 521 c-14 -5 -16 -10 -8 -15 7 -4 12 -30 12 -59 0 -70 9 -81 58
-75 22 3 45 1 50 -4 20 -20 27 2 24 81 -3 79 -4 82 -25 75 -29 -9 -35 -16 -19
-21 7 -3 12 -24 12 -54 0 -42 -3 -51 -22 -58 -36 -14 -48 5 -48 75 0 66 -1 68
-34 55z"/>
<path d="M4598 523 c-19 -5 -25 -23 -8 -23 15 0 13 -117 -2 -123 -7 -3 10 -5
37 -6 40 0 46 2 27 10 -21 8 -23 14 -20 61 3 49 5 53 31 56 15 2 27 9 27 18 0
17 -14 18 -41 4 -13 -7 -19 -7 -19 0 0 10 -3 11 -32 3z"/>
<path d="M4769 512 c-29 -24 -21 -44 31 -77 23 -14 40 -31 37 -38 -6 -19 -56
-21 -63 -3 -8 20 -24 21 -24 2 0 -20 15 -28 56 -28 72 0 86 48 24 87 -42 26
-51 51 -24 62 10 4 22 -1 30 -12 15 -21 30 -14 21 10 -9 21 -60 19 -88 -3z"/>
<path d="M5550 522 c0 -5 3 -12 8 -16 4 -4 16 -35 28 -69 13 -39 27 -63 37
-65 18 -4 20 -1 38 68 l11 45 17 -55 c25 -81 45 -78 71 9 11 39 25 71 30 71 6
0 10 5 10 10 0 6 -13 10 -30 10 -28 0 -42 -14 -21 -22 10 -3 -8 -98 -19 -98
-3 0 -13 26 -21 58 -20 76 -39 75 -60 -3 -15 -55 -17 -58 -26 -35 -18 46 -24
80 -13 80 5 0 10 5 10 10 0 6 -16 10 -35 10 -19 0 -35 -4 -35 -8z"/>
<path d="M5874 515 c-17 -13 -16 -14 18 -8 30 4 38 2 47 -15 13 -24 9 -27 -37
-37 -61 -13 -66 -87 -6 -86 10 1 39 1 64 2 25 0 39 3 33 6 -8 3 -13 26 -13 63
0 66 -15 90 -59 90 -15 0 -36 -7 -47 -15z m74 -100 c-1 -10 -11 -23 -21 -29
-15 -9 -21 -7 -32 8 -17 22 -12 34 19 46 25 9 39 -1 34 -25z"/>
<path d="M6040 527 c0 -5 47 -106 64 -139 12 -23 12 -29 -1 -47 -8 -12 -21
-21 -29 -21 -8 0 -14 -7 -14 -15 0 -20 12 -19 42 5 16 12 37 52 58 110 18 49
36 90 41 90 5 0 9 5 9 10 0 13 -57 13 -64 1 -4 -5 -1 -11 5 -13 9 -3 9 -17 -1
-56 -6 -29 -16 -50 -20 -47 -15 9 -41 100 -30 103 23 8 7 22 -25 22 -19 0 -35
-1 -35 -3z"/>
<path d="M6281 511 c-26 -26 -19 -43 30 -76 22 -14 39 -32 36 -38 -6 -19 -43
-20 -61 -1 -19 18 -32 13 -23 -9 11 -29 91 -26 110 4 15 24 2 47 -38 70 -19
12 -35 27 -35 35 0 24 29 28 52 8 20 -19 20 -19 17 1 -6 29 -61 33 -88 6z"/>
<path d="M6472 398 c-18 -18 -14 -28 8 -28 11 0 20 6 20 14 0 21 -15 27 -28
14z"/>
<path d="M6611 396 c-12 -14 -5 -26 16 -26 15 0 18 26 4 34 -5 3 -14 0 -20 -8z"/>
<path d="M4955 390 c-3 -5 -1 -18 5 -29 11 -21 4 -51 -12 -51 -5 0 -6 -5 -3
-11 8 -13 42 15 50 42 11 33 -24 75 -40 49z"/>
</g>
</svg>
